<svg xmlns="http://www.w3.org/2000/svg" viewBox="0 0 390 390">
  <title>linkedin</title>
  <g id="Layer_2" data-name="Layer 2">
    <g id="facebook_circle_100K" data-name="facebook circle 100K"><path
      d="M195,0C87.3,0,0,87.3,0,195S87.3,390,195,390s195-87.3,195-195S302.7,0,195,0ZM143.88,286.52H101v-138h42.88ZM122.45,129.69a24.86,24.86,0,1,1,24.85-24.87A24.86,24.86,0,0,1,122.45,129.69Zm182,156.83H261.63v-67.1c0-16-.29-36.58-22.28-36.58-22.31,0-25.73,17.43-25.73,35.43v68.25H170.77v-138H211.9V167.4h.57c5.73-10.84,19.72-22.28,40.58-22.28,43.42,0,51.43,28.58,51.43,65.72Z"/></g>
  </g>
</svg>
