<svg class="logo__simplified" xmlns="http://www.w3.org/2000/svg" viewBox="0 0 234.57 253.77"><title>Terra Firma Logo Simplified</title><g id="Layer_2" data-name="Layer 2"><g id="Outlines"><path d="M414.57-54.24c12.16,0,25.92,25,38.08,41.6l1.92-.64-4.48-43.2A114.49,114.49,0,0,0,422.89-60c-45.44,0-80.64,34.24-80.64,85.12v8H289.44V-4h-3.52L220,37.28v2.88h17.92V149.29c0,32,18.24,44.48,44.16,44.48,25.28,0,42.56-12.48,49.6-25l-1-1c-.32.32-7,5.44-18.24,5.44-12.8,0-23-6.08-23-25.29V40.16h52.81v98.56c0,25.93-3.84,37.13-9.92,49.61V189h71.36v-.64c-6.08-12.48-9.92-24.64-9.92-49.61V40.16h36.48v-7H393.77V2.72C393.77-31.84,403.37-54.24,414.57-54.24Z" transform="translate(-220 60)"/></g></g></svg>
