<svg class="logo__full" xmlns="http://www.w3.org/2000/svg" viewBox="0 0 695.78 253.77"><title>Asset 5</title><g id="Layer_2" data-name="Layer 2"><g id="Outlines"><path d="M194.57,5.76c12.16,0,25.92,25,38.08,41.6l1.92-.64-4.48-43.2A114.49,114.49,0,0,0,202.89,0c-45.44,0-80.64,34.24-80.64,85.12v8H69.44V56H65.92L0,97.28v2.88H17.92V209.29c0,32,18.24,44.48,44.16,44.48,25.28,0,42.56-12.48,49.6-25l-1-1c-.32.32-7,5.44-18.24,5.44-12.8,0-23-6.08-23-25.29V100.16h52.81v98.56c0,25.93-3.84,37.13-9.92,49.61V249h71.36v-.64c-6.08-12.48-9.92-24.64-9.92-49.61V100.16h36.48v-7H173.77V62.72C173.77,28.16,183.37,5.76,194.57,5.76Z"/><path d="M297.64,69.57H280.13v-.18c2.87-5.57,3.59-8.71,3.59-16.08v-48l-9.79.36c-3.95.18-10.51,10.42-15.18,16.89l-.72-.27,3.42-18.5h54.87l3.42,18.5-.72.27c-4.67-6.47-11.23-16.71-15.18-16.89l-9.79-.36v48c0,7.46.63,10.51,3.59,16.08Z"/><path d="M335.36,70.92c-12,0-20.2-9.52-20.2-22,0-14.46,10.86-23.53,20.74-23.53,10.51,0,17.7,9.61,17.16,17.51H324.23V44.6c0,12.66,6.28,18.68,15.71,18.68a15.31,15.31,0,0,0,12.67-6l.54.36C350.81,65,344.7,70.92,335.36,70.92ZM324.41,41.46,343.9,41V40c0-8.89-2.79-13-8.36-13C328.72,27,325.12,33.28,324.41,41.46Z"/><path d="M360.87,69.57v-.18c1.71-4.94,2.07-9.34,2.07-17.25V41.55c0-5.93-1.89-9.25-4.05-11.68v-.18l12.67-4.76v11h.36c3.59-4.22,8.44-10.6,14.28-10.51l-.18,11h-.36a17.66,17.66,0,0,0-8-2.7c-1.44,0-3.78,1.35-5.75,4V52.05c0,7.82.18,12.4,2,17.34v.18Z"/><path d="M394.64,69.57v-.18c1.71-4.94,2.07-9.34,2.07-17.25V41.55c0-5.93-1.89-9.25-4-11.68v-.18l12.67-4.76v11h.36c3.59-4.22,8.44-10.6,14.28-10.51l-.18,11h-.36a17.66,17.66,0,0,0-8-2.7c-1.44,0-3.78,1.35-5.75,4V52.05c0,7.82.18,12.4,2,17.34v.18Z"/><path d="M445.29,65a17.32,17.32,0,0,1-12.93,5.93c-5.3,0-9.61-2.52-9.61-7.64,0-9.07,12.93-13.47,22.36-15V38.49c0-4.67-1.88-7.72-8.26-7.72a19.16,19.16,0,0,0-12,4l-.44-.54a21.59,21.59,0,0,1,17.87-8.89c9.07,0,11.76,5.12,11.76,10.69v25.6c0,2.24.9,4,3.51,4a7,7,0,0,0,4.4-1.71l.18.18c-1.35,2.87-4,6.56-9.43,6.56C448.26,70.65,445.92,68,445.29,65Zm-.18-1.53V49.81c-7.09,1.62-13.92,4.58-13.92,10.51,0,3.5,2.34,5.75,6.56,5.75A11.14,11.14,0,0,0,445.11,63.46Z"/><path d="M499.81,69.57H482.29v-.18c2.88-5.57,3.6-8.71,3.6-16.08V20.08c0-7.45-.72-10.51-3.6-16.08V3.83h44.19l3.51,16-.81.18C524.51,15.14,518,5.8,514,5.71l-17.78-.63V34.72h9.52c4.31,0,8.08-6,11.13-9.43h.81v20.3h-.81c-3-3.15-6.73-9.07-11.13-9.07h-9.52V53.31c0,7.46.62,10.51,3.59,16.08Z"/><path d="M532.32,69.39a62.56,62.56,0,0,0,2.07-17.25V41.91c0-5.75-1.89-9.16-4-11.59v-.63l13-4.76V52.05c0,7.73.18,12.4,2,17.34v.18h-13Zm6.11-53.53A5.4,5.4,0,0,1,533,10.47a5.39,5.39,0,1,1,10.78,0A5.41,5.41,0,0,1,538.43,15.86Z"/><path d="M555.4,69.57v-.18c1.71-4.94,2.07-9.34,2.07-17.25V41.55c0-5.93-1.89-9.25-4-11.68v-.18l12.66-4.76v11h.36c3.59-4.22,8.44-10.6,14.28-10.51l-.18,11h-.36a17.66,17.66,0,0,0-8-2.7c-1.44,0-3.77,1.35-5.75,4V52.05c0,7.82.18,12.4,2,17.34v.18Z"/><path d="M600.4,69.57h-13v-.18c1.7-4.94,2.06-9.34,2.06-17.25V41.55c0-5.93-1.88-9.25-4-11.68v-.18l12.66-4.76v8.62l.36.09c3.6-5.39,8.09-8.26,13.74-8.26,6.56,0,9.88,3.32,10.6,8.17l.27.09c3.68-5.39,8.17-8.26,13.83-8.26,7.46,0,10.87,4.58,10.87,12V52.05c0,8.09.18,12.4,2,17.34v.18H636.77v-.18c1.62-4.94,2-9.7,2-17.25V39.39c0-4.58-1.44-8.53-6.65-8.53A10.89,10.89,0,0,0,623,35.71V52.05c0,8.09.18,12.4,2.07,17.34v.18h-13v-.18c1.71-4.94,2-9.7,2-17.25V39.39c0-4.58-1.35-8.53-6.65-8.53a10.64,10.64,0,0,0-9,4.85V52.05c0,7.82.18,12.4,2,17.34Z"/><path d="M678.89,65A17.32,17.32,0,0,1,666,70.92c-5.3,0-9.61-2.52-9.61-7.64,0-9.07,12.93-13.47,22.36-15V38.49c0-4.67-1.88-7.72-8.26-7.72a19.12,19.12,0,0,0-11.94,4l-.45-.54a21.59,21.59,0,0,1,17.87-8.89c9.07,0,11.77,5.12,11.77,10.69v25.6c0,2.24.89,4,3.5,4a7,7,0,0,0,4.4-1.71l.18.18c-1.35,2.87-4,6.56-9.43,6.56C681.86,70.65,679.52,68,678.89,65Zm-.18-1.53V49.81c-7.09,1.62-13.92,4.58-13.92,10.51,0,3.5,2.34,5.75,6.56,5.75A11.14,11.14,0,0,0,678.71,63.46Z"/><path d="M266.57,159.38v-.18c2.87-5.57,3.59-8.71,3.59-16.07V109.89c0-7.45-.72-10.5-3.59-16.07v-.18h17.51v.18c-3,5.57-3.59,8.62-3.59,16.07v48.23l13.56-.53c7.45-.36,14.37-8.63,19.4-16.26l.72.27-3.95,17.78Z"/><path d="M341.47,154.8a17.29,17.29,0,0,1-12.93,5.93c-5.3,0-9.61-2.52-9.61-7.64,0-9.07,12.93-13.47,22.36-15v-9.79c0-4.67-1.89-7.73-8.26-7.73a19.12,19.12,0,0,0-11.95,4l-.45-.53a21.61,21.61,0,0,1,17.88-8.9c9.07,0,11.76,5.12,11.76,10.69v25.6c0,2.24.9,4,3.5,4a7,7,0,0,0,4.41-1.71l.17.18c-1.34,2.88-4,6.56-9.42,6.56C344.43,160.46,342.1,157.86,341.47,154.8Zm-.18-1.53V139.62c-7.09,1.62-13.92,4.58-13.92,10.51,0,3.5,2.33,5.75,6.56,5.75A11.16,11.16,0,0,0,341.29,153.27Z"/><path d="M375.06,159.38H362v-.18c1.7-4.94,2.06-9.34,2.06-17.24v-10.6c0-5.93-1.88-9.25-4-11.68v-.18l12.67-4.76v8.63l.35.09c3.87-4.67,8.18-8.27,14.46-8.27,8.18,0,12.67,5,12.67,13v13.65c0,8.08.18,12.39,2.06,17.33v.18h-13v-.18c1.62-4.94,2-9.7,2-17.24V130.28c0-5.12-2.25-9.61-8.27-9.61a13.6,13.6,0,0,0-9.88,4.49v16.71c0,7.81.18,12.39,2,17.33Z"/><path d="M441.7,151.66a17.59,17.59,0,0,1-15.36,9.07c-10.5,0-17.24-8.8-17.24-20.84,0-13,8.08-24.7,23.44-24.7a24.75,24.75,0,0,1,9.07,1.62V106.12c0-5.93-1.88-9.34-4-11.67v-.18l13-4.76v50.74c0,12.31,1.08,14.46,4.13,17.16v.18L442,160.46v-8.8Zm-.09-1.8V126.78c-1.62-7.63-6.11-10-10.24-10-7.9,0-12.84,8.35-12.84,20,0,10.78,4.13,17.87,12.48,17.87A13.37,13.37,0,0,0,441.61,149.86Z"/><path d="M489.3,126.78l-.54.18c-4.58-7.81-9.7-10.15-13.92-10.15-4.67,0-7.36,3-7.36,6.65,0,5.21,5.66,7.18,11.58,9.7,6.29,2.69,12.76,6,12.76,14.64,0,8.89-7.46,12.93-16.8,12.93a40.53,40.53,0,0,1-13.2-2.34l-.9-11.49.54-.18c4.49,8.71,9.07,12.39,14.73,12.39,6,0,8.26-4,8.26-7.72,0-4.67-3.5-6.83-9.52-9.43s-13.29-5.57-13.29-14.55c0-9.16,7.72-12.22,15.63-12.22A35.36,35.36,0,0,1,488.4,117Z"/><path d="M535,149.32c-2.34,6.83-7.91,11.41-16.8,11.41-12.21,0-20.12-8.71-20.12-22,0-13.65,11-23.53,22.72-23.53,6.2,0,9.79,1.35,11.86,2.34l1.17,10-.81.18c-2.43-4.31-8.62-10.87-13.56-10.87-7.64,0-12.58,7.1-12.58,18.14,0,11.77,6.2,18.14,15.63,18.14,4.31,0,9.07-1.16,12-4.13Z"/><path d="M562.23,154.8a17.32,17.32,0,0,1-12.93,5.93c-5.3,0-9.61-2.52-9.61-7.64,0-9.07,12.93-13.47,22.36-15v-9.79c0-4.67-1.89-7.73-8.26-7.73a19.12,19.12,0,0,0-11.95,4l-.45-.53a21.6,21.6,0,0,1,17.88-8.9c9.07,0,11.76,5.12,11.76,10.69v25.6c0,2.24.9,4,3.5,4a7,7,0,0,0,4.4-1.71l.18.18c-1.34,2.88-4,6.56-9.43,6.56C565.19,160.46,562.86,157.86,562.23,154.8Zm-.18-1.53V139.62c-7.1,1.62-13.92,4.58-13.92,10.51,0,3.5,2.33,5.75,6.56,5.75A11.16,11.16,0,0,0,562.05,153.27Z"/><path d="M582.8,179.59v-.18c1.7-4.94,2.06-9.34,2.06-17.24V131.36c0-5.93-1.88-9.25-4-11.68v-.18l12.66-4.76v7.91l.54.09c3.06-3.68,7.91-7.55,15.27-7.55,10.33,0,17.06,9.34,17.06,22.28s-7.36,23.26-22.18,23.26a24.83,24.83,0,0,1-10.33-2.07v3.42c0,7.81.18,12.39,2,17.33v.18Zm34.13-40.42c0-12.84-5.3-18.14-13.12-18.14a14.67,14.67,0,0,0-10,3.68v18.06c0,12.48,6.29,16.34,11.23,16.34C612.07,159.11,616.93,151.48,616.93,139.17Z"/><path d="M653.3,160.73c-12,0-20.21-9.52-20.21-22,0-14.46,10.87-23.53,20.75-23.53,10.51,0,17.69,9.61,17.15,17.52H642.16v1.7c0,12.67,6.29,18.68,15.72,18.68a15.29,15.29,0,0,0,12.66-6l.54.36C668.75,154.8,662.64,160.73,653.3,160.73Zm-11-29.46,19.49-.45v-1c0-8.89-2.78-13-8.35-13C646.65,116.81,643.06,123.1,642.34,131.27Z"/><path d="M266.93,249.2H254.8V249c4.31-4.49,5.93-8.54,8.53-15.45l19.31-50.84h1.8l19.67,51.83c3,7.81,5,11.22,8.17,14.46v.18H294.41V249c1.53-2.61,1.53-8.27-1-14.91l-3.68-9.7H268.63l-1.88,5c-4,10.51-1.71,16.61.18,19.58Zm12.3-52.54-9.88,26H289Z"/><path d="M316.68,249.2V249c1.71-4.94,2.07-9.34,2.07-17.25v-10.6c0-5.92-1.89-9.25-4-11.67v-.18l12.66-4.76v11h.36c3.59-4.23,8.44-10.6,14.28-10.51l-.18,11h-.36a17.66,17.66,0,0,0-8-2.7c-1.44,0-3.78,1.35-5.75,4v14.37c0,7.82.18,12.4,2,17.34v.18Z"/><path d="M382.78,239.14c-2.33,6.82-7.9,11.4-16.79,11.4-12.22,0-20.12-8.71-20.12-22,0-13.65,11-23.53,22.72-23.53,6.2,0,9.79,1.35,11.86,2.33l1.17,10-.81.18c-2.43-4.31-8.62-10.87-13.56-10.87-7.64,0-12.58,7.1-12.58,18.15,0,11.76,6.2,18.14,15.63,18.14,4.31,0,9.07-1.17,11.95-4.13Z"/><path d="M388.35,249.2V249c1.62-4.94,2-9.34,2-17.25V195.85c0-5.84-1.89-9.25-4-11.68V184l13-4.67v34c3.86-4.67,8.17-8.26,14.46-8.26,8.17,0,12.75,5,12.75,13v13.74c0,8,.18,12.31,2,17.25v.18h-13V249c1.7-4.94,2.06-9.79,2.06-17.25V220.1c0-5.12-2.33-9.61-8.26-9.61a13.5,13.5,0,0,0-10,4.58v16.7c0,7.73.27,12.31,2.07,17.25v.18Z"/><path d="M438.2,249a62.56,62.56,0,0,0,2.07-17.25V221.53c0-5.74-1.89-9.16-4-11.58v-.63l13-4.76v27.12c0,7.73.18,12.4,2,17.34v.18h-13Zm6.11-53.53a5.41,5.41,0,0,1-5.39-5.39,5.39,5.39,0,1,1,10.77,0A5.4,5.4,0,0,1,444.31,195.49Z"/><path d="M463.62,239.68V208h-4.85v-.54l13-11.22h.9v10.15h11.58V208H472.69v31.44c0,4.31,2,6.64,6.28,6.64a12.31,12.31,0,0,0,5.93-1.52l.27.35a13.63,13.63,0,0,1-11.5,5.66C468.38,250.54,463.62,248.12,463.62,239.68Z"/><path d="M508.43,250.54c-12,0-20.21-9.52-20.21-22,0-14.46,10.87-23.53,20.75-23.53,10.51,0,17.69,9.61,17.16,17.51H497.3v1.71c0,12.66,6.28,18.68,15.71,18.68a15.33,15.33,0,0,0,12.67-6l.54.36C523.88,244.62,517.77,250.54,508.43,250.54Zm-10.95-29.46,19.48-.44v-1c0-8.89-2.78-13-8.35-13C501.79,206.62,498.19,212.91,497.48,221.08Z"/><path d="M568.07,239.14c-2.34,6.82-7.91,11.4-16.8,11.4-12.21,0-20.12-8.71-20.12-22,0-13.65,11-23.53,22.73-23.53,6.19,0,9.79,1.35,11.85,2.33l1.17,10-.81.18c-2.42-4.31-8.62-10.87-13.56-10.87-7.63,0-12.57,7.1-12.57,18.15,0,11.76,6.19,18.14,15.62,18.14,4.31,0,9.07-1.17,11.95-4.13Z"/><path d="M575.79,239.68V208h-4.85v-.54l13-11.22h.9v10.15h11.59V208H584.86v31.44c0,4.31,2,6.64,6.29,6.64a12.35,12.35,0,0,0,5.93-1.52l.27.35a13.64,13.64,0,0,1-11.5,5.66C580.55,250.54,575.79,248.12,575.79,239.68Z"/><path d="M629.68,216.59l-.54.18c-4.58-7.81-9.7-10.15-13.92-10.15-4.67,0-7.37,3-7.37,6.65,0,5.21,5.66,7.19,11.59,9.7,6.29,2.7,12.75,6,12.75,14.64,0,8.89-7.45,12.93-16.79,12.93a40.53,40.53,0,0,1-13.2-2.33l-.9-11.5.54-.18c4.49,8.71,9.07,12.4,14.73,12.4,6,0,8.26-4.05,8.26-7.73,0-4.67-3.5-6.82-9.52-9.43S602,226.2,602,217.22c0-9.16,7.72-12.21,15.62-12.21a35.81,35.81,0,0,1,11.14,1.79Z"/></g></g></svg>
