<svg class="logo__simplified" xmlns="http://www.w3.org/2000/svg" viewBox="0 0 234.57 253.77">
  <title>Terra Firma Logo Simplified</title>
  <g id="Layer_2" data-name="Layer 2">
    <g id="Outlines"><path
      d="M194.57,5.76c12.16,0,25.92,25,38.08,41.6l1.92-.64-4.48-43.2A114.49,114.49,0,0,0,202.89,0c-45.44,0-80.64,34.24-80.64,85.12v8H69.44V56H65.92L0,97.28v2.88H17.92V205.29c0,32,18.24,46.48,44.16,46.48,25.28,0,42.56-12.48,49.6-25l-1-1c-.32.32-7,5.44-18.24,5.44-12.8,0-23-6.08-23-25.29V100.16h52.81v98.56c0,25.93-3.84,37.13-9.92,49.61V249h71.36v-.64c-6.08-12.48-9.92-24.64-9.92-49.61V100.16h36.48v-7H173.77V62.72C173.77,28.16,183.37,5.76,194.57,5.76Z"
      /></g>
  </g>
</svg>
