<svg class="logo__full" xmlns="http://www.w3.org/2000/svg" viewBox="0 0 717.44 253.77">
  <title>Terra Firma Logo Full</title>
  <g id="Layer_2" data-name="Layer 2">
    <g id="Outlines"><path
      d="M194.57,5.76c12.16,0,25.92,25,38.08,41.6l1.92-.64-4.48-43.2A114.49,114.49,0,0,0,202.89,0c-45.44,0-80.64,34.24-80.64,85.12v8H69.44V56H65.92L0,97.28v2.88H17.92V205.29c0,32,18.24,46.48,44.16,46.48,25.28,0,42.56-12.48,49.6-25l-1-1c-.32.32-7,5.44-18.24,5.44-12.8,0-23-6.08-23-25.29V100.16h52.81v98.56c0,25.93-3.84,37.13-9.92,49.61V249h71.36v-.64c-6.08-12.48-9.92-24.64-9.92-49.61V100.16h36.48v-7H173.77V62.72C173.77,28.16,183.37,5.76,194.57,5.76Z"
      /><path d="M297.23,69.9H279.68v-.18c2.88-5.58,3.6-8.73,3.6-16.11V5.55l-9.81.36c-4,.18-10.53,10.44-15.21,16.92l-.72-.27L261,4h55l3.42,18.54-.72.27C314,16.35,307.4,6.09,303.44,5.91l-9.81-.36V53.61c0,7.47.63,10.53,3.6,16.11Z" /><path
      d="M335,71.25c-12.06,0-20.25-9.54-20.25-22,0-14.49,10.89-23.58,20.79-23.58,10.53,0,17.73,9.63,17.19,17.55H323.87v1.71c0,12.69,6.3,18.72,15.75,18.72a15.34,15.34,0,0,0,12.69-6l.54.36C350.51,65.31,344.39,71.25,335,71.25Zm-11-29.52,19.53-.45v-1c0-8.91-2.79-13-8.37-13C328.37,27.24,324.77,33.54,324.05,41.73Z"
      /><path
      d="M361.49,69.9v-.18c1.71-5,2.07-9.36,2.07-17.28V41.82c0-5.94-1.89-9.27-4.05-11.7v-.18l12.69-4.77v11h.36c3.6-4.23,8.46-10.62,14.31-10.53l-.18,11h-.36a17.69,17.69,0,0,0-8-2.7c-1.44,0-3.78,1.35-5.76,4.05v14.4c0,7.83.18,12.42,2,17.37v.18Z"
      /><path
      d="M395.33,69.9v-.18c1.71-5,2.07-9.36,2.07-17.28V41.82c0-5.94-1.89-9.27-4-11.7v-.18L406,25.17v11h.36c3.6-4.23,8.46-10.62,14.31-10.53l-.18,11h-.36a17.69,17.69,0,0,0-8-2.7c-1.44,0-3.78,1.35-5.76,4.05v14.4c0,7.83.18,12.42,2,17.37v.18Z"
      /><path
      d="M446.09,65.31a17.36,17.36,0,0,1-13,5.94c-5.31,0-9.63-2.52-9.63-7.65,0-9.09,13-13.5,22.41-15V38.76c0-4.68-1.89-7.74-8.28-7.74a19.15,19.15,0,0,0-12,4.05l-.45-.54a21.64,21.64,0,0,1,17.91-8.91c9.09,0,11.79,5.13,11.79,10.71V62c0,2.25.9,4,3.51,4a7,7,0,0,0,4.41-1.71l.18.18C461.66,67.29,459,71,453.56,71,449.06,71,446.72,68.37,446.09,65.31Zm-.18-1.53V50.1c-7.11,1.62-14,4.59-14,10.53,0,3.51,2.34,5.76,6.57,5.76A11.2,11.2,0,0,0,445.91,63.78Z"
      /><path
      d="M500.72,69.9H483.17v-.18c2.88-5.58,3.6-8.73,3.6-16.11V20.31c0-7.47-.72-10.53-3.6-16.11V4h44.28L531,20l-.81.18C525.47,15.36,519,6,514.94,5.91l-17.82-.63V35h9.54c4.32,0,8.1-6,11.16-9.45h.81V45.87h-.81c-3-3.15-6.75-9.09-11.16-9.09h-9.54V53.61c0,7.47.63,10.53,3.6,16.11Z"
      /><path d="M533.3,69.72a62.8,62.8,0,0,0,2.07-17.28V42.18c0-5.76-1.89-9.18-4-11.61v-.63l13-4.77V52.35c0,7.74.18,12.42,2,17.37v.18H533.3Zm6.12-53.64a5.42,5.42,0,0,1-5.4-5.4,5.4,5.4,0,1,1,10.8,0A5.42,5.42,0,0,1,539.42,16.08Z" /><path
      d="M556.43,69.9v-.18c1.71-5,2.07-9.36,2.07-17.28V41.82c0-5.94-1.89-9.27-4-11.7v-.18l12.69-4.77v11h.36c3.6-4.23,8.46-10.62,14.31-10.53l-.18,11h-.36a17.69,17.69,0,0,0-8-2.7c-1.44,0-3.78,1.35-5.76,4.05v14.4c0,7.83.18,12.42,2,17.37v.18Z"
      /><path
      d="M601.52,69.9h-13v-.18c1.71-5,2.07-9.36,2.07-17.28V41.82c0-5.94-1.89-9.27-4-11.7v-.18l12.69-4.77v8.64l.36.09c3.6-5.4,8.1-8.28,13.77-8.28,6.57,0,9.9,3.33,10.62,8.19l.27.09c3.69-5.4,8.19-8.28,13.86-8.28,7.46,0,10.88,4.59,10.88,12V52.35c0,8.1.18,12.42,2,17.37v.18H638v-.18c1.62-5,2-9.72,2-17.28V39.66c0-4.59-1.43-8.55-6.65-8.55A10.9,10.9,0,0,0,624.2,36V52.35c0,8.1.18,12.42,2.07,17.37v.18h-13v-.18c1.71-5,2-9.72,2-17.28V39.66c0-4.59-1.35-8.55-6.66-8.55a10.65,10.65,0,0,0-9,4.86V52.35c0,7.83.18,12.42,2,17.37Z"
      /><path
      d="M680.18,65.31a17.36,17.36,0,0,1-13,5.94c-5.31,0-9.63-2.52-9.63-7.65,0-9.09,13-13.5,22.4-15V38.76c0-4.68-1.89-7.74-8.27-7.74a19.15,19.15,0,0,0-12,4.05l-.45-.54a21.63,21.63,0,0,1,17.9-8.91c9.09,0,11.79,5.13,11.79,10.71V62c0,2.25.9,4,3.51,4a7,7,0,0,0,4.41-1.71l.18.18C695.74,67.29,693,71,687.65,71,683.15,71,680.81,68.37,680.18,65.31ZM680,63.78V50.1c-7.1,1.62-13.94,4.59-13.94,10.53,0,3.51,2.34,5.76,6.56,5.76A11.16,11.16,0,0,0,680,63.78Z"
      /><path d="M266.09,159.9v-.18c2.88-5.58,3.6-8.73,3.6-16.11v-33.3c0-7.47-.72-10.53-3.6-16.11V94h17.55v.18c-3,5.58-3.6,8.64-3.6,16.11v48.33l13.59-.54c7.47-.36,14.4-8.64,19.44-16.29l.72.27-4,17.82Z" /><path
      d="M341.15,155.31a17.36,17.36,0,0,1-13,5.94c-5.31,0-9.63-2.52-9.63-7.65,0-9.09,13-13.5,22.41-15v-9.81c0-4.68-1.89-7.74-8.28-7.74a19.15,19.15,0,0,0-12,4l-.45-.54a21.64,21.64,0,0,1,17.91-8.91c9.09,0,11.79,5.13,11.79,10.71V152c0,2.25.9,4,3.51,4a7,7,0,0,0,4.41-1.71l.18.18c-1.35,2.88-4.05,6.57-9.45,6.57C344.12,161,341.78,158.37,341.15,155.31Zm-.18-1.53V140.1c-7.11,1.62-14,4.59-14,10.53,0,3.51,2.34,5.76,6.57,5.76A11.2,11.2,0,0,0,341,153.78Z"
      /><path
      d="M374.81,159.9H361.76v-.18c1.71-4.95,2.07-9.36,2.07-17.28V131.82c0-5.94-1.89-9.27-4.05-11.7v-.18l12.69-4.77v8.64l.36.09c3.87-4.68,8.19-8.28,14.49-8.28,8.19,0,12.69,5,12.69,13v13.68c0,8.1.18,12.42,2.07,17.37v.18H389v-.18c1.62-4.95,2-9.72,2-17.28v-11.7c0-5.13-2.25-9.63-8.28-9.63a13.6,13.6,0,0,0-9.9,4.5v16.74c0,7.83.18,12.42,2,17.37Z"
      /><path
      d="M441.59,152.16a17.63,17.63,0,0,1-15.39,9.09c-10.53,0-17.28-8.82-17.28-20.88,0-13.05,8.1-24.75,23.49-24.75a24.86,24.86,0,0,1,9.09,1.62V106.53c0-5.94-1.89-9.36-4.05-11.7v-.18l13.05-4.77v50.85c0,12.33,1.08,14.49,4.14,17.19v.18L441.86,161v-8.82Zm-.09-1.8V127.23c-1.62-7.65-6.12-10-10.26-10-7.92,0-12.87,8.37-12.87,20.07,0,10.8,4.14,17.91,12.51,17.91A13.42,13.42,0,0,0,441.5,150.36Z"
      /><path
      d="M490.19,127.23l-.54.18c-4.59-7.83-9.72-10.17-13.95-10.17-4.68,0-7.38,3-7.38,6.66,0,5.22,5.67,7.2,11.61,9.72,6.3,2.7,12.78,6,12.78,14.67,0,8.91-7.47,13-16.83,13a40.71,40.71,0,0,1-13.23-2.34l-.9-11.52.54-.18c4.5,8.73,9.09,12.42,14.76,12.42,6,0,8.28-4,8.28-7.74,0-4.68-3.51-6.84-9.54-9.45s-13.32-5.58-13.32-14.58c0-9.18,7.74-12.24,15.66-12.24a35.57,35.57,0,0,1,11.16,1.8Z"
      /><path
      d="M534.65,149.82c-2.34,6.84-7.92,11.43-16.83,11.43-12.24,0-20.16-8.73-20.16-22.05,0-13.68,11-23.58,22.77-23.58,6.21,0,9.81,1.35,11.88,2.34l1.17,10-.81.18c-2.43-4.32-8.64-10.89-13.59-10.89-7.65,0-12.6,7.11-12.6,18.18,0,11.79,6.21,18.18,15.66,18.18,4.32,0,9.09-1.17,12-4.14Z"
      /><path
      d="M561.92,155.31a17.36,17.36,0,0,1-13,5.94c-5.31,0-9.63-2.52-9.63-7.65,0-9.09,13-13.5,22.41-15v-9.81c0-4.68-1.89-7.74-8.28-7.74a19.15,19.15,0,0,0-12,4l-.45-.54A21.64,21.64,0,0,1,559,115.62c9.09,0,11.79,5.13,11.79,10.71V152c0,2.25.9,4,3.51,4a7,7,0,0,0,4.41-1.71l.18.18c-1.35,2.88-4.05,6.57-9.45,6.57C564.89,161,562.55,158.37,561.92,155.31Zm-.18-1.53V140.1c-7.11,1.62-14,4.59-14,10.53,0,3.51,2.34,5.76,6.57,5.76A11.2,11.2,0,0,0,561.74,153.78Z"
      /><path
      d="M582.53,180.15V180c1.71-4.95,2.07-9.36,2.07-17.28V131.82c0-5.94-1.89-9.27-4.05-11.7v-.18l12.69-4.77v7.92l.54.09c3.06-3.69,7.92-7.56,15.3-7.56,10.35,0,17.1,9.36,17.1,22.32S618.8,161.25,604,161.25a24.89,24.89,0,0,1-10.35-2.07v3.42c0,7.83.18,12.42,2,17.37v.18Zm34.2-40.5c0-12.87-5.31-18.18-13.14-18.18a14.66,14.66,0,0,0-10,3.69v18.09c0,12.51,6.3,16.38,11.25,16.38C611.87,159.63,616.73,152,616.73,139.65Z"
      /><path
      d="M653.18,161.25c-12.06,0-20.25-9.54-20.25-22.05,0-14.49,10.89-23.58,20.79-23.58,10.52,0,17.72,9.63,17.18,17.55H642v1.71c0,12.69,6.3,18.72,15.75,18.72a15.31,15.31,0,0,0,12.68-6l.54.36C668.65,155.31,662.53,161.25,653.18,161.25Zm-11-29.52,19.53-.45v-1c0-8.91-2.79-13-8.38-13C646.52,117.24,642.92,123.54,642.2,131.73Z"
      /><path
      d="M267.35,249.9H255.2v-.18c4.32-4.5,5.94-8.55,8.55-15.48L283.1,183.3h1.8l19.71,51.93c3,7.83,5,11.25,8.19,14.49v.18H294.89v-.18c1.53-2.61,1.53-8.28-1-14.94l-3.69-9.72H269.06l-1.89,5c-4.05,10.53-1.71,16.65.18,19.62Zm12.33-52.65-9.9,26h19.71Z"
      /><path
      d="M317.21,249.9v-.18c1.71-4.95,2.07-9.36,2.07-17.28V221.82c0-5.94-1.89-9.27-4-11.7v-.18l12.69-4.77v11h.36c3.6-4.23,8.46-10.62,14.31-10.53l-.18,11h-.36a17.69,17.69,0,0,0-8-2.7c-1.44,0-3.78,1.35-5.76,4v14.4c0,7.83.18,12.42,2,17.37v.18Z"
      /><path
      d="M383.45,239.82c-2.34,6.84-7.92,11.43-16.83,11.43-12.24,0-20.16-8.73-20.16-22.05,0-13.68,11-23.58,22.77-23.58,6.21,0,9.81,1.35,11.88,2.34l1.17,10-.81.18c-2.43-4.32-8.64-10.89-13.59-10.89-7.65,0-12.6,7.11-12.6,18.18,0,11.79,6.21,18.18,15.66,18.18,4.32,0,9.09-1.17,12-4.14Z"
      /><path
      d="M389,249.9v-.18c1.62-4.95,2-9.36,2-17.28v-36c0-5.85-1.89-9.27-4.05-11.7v-.18L400,179.88v34c3.87-4.68,8.19-8.28,14.49-8.28,8.19,0,12.78,5,12.78,13v13.77c0,8,.18,12.33,2,17.28v.18H416.21v-.18c1.71-4.95,2.07-9.81,2.07-17.28v-11.7c0-5.13-2.34-9.63-8.28-9.63a13.55,13.55,0,0,0-10,4.59v16.74c0,7.74.27,12.33,2.07,17.28v.18Z"
      /><path d="M439,249.72a62.8,62.8,0,0,0,2.07-17.28V222.18c0-5.76-1.89-9.18-4.05-11.61v-.63l13.05-4.77v27.18c0,7.74.18,12.42,2,17.37v.18H439Zm6.12-53.64a5.42,5.42,0,0,1-5.4-5.4,5.4,5.4,0,1,1,10.8,0A5.42,5.42,0,0,1,445.1,196.08Z" /><path d="M463.55,240.36V208.59h-4.86v-.54l13.05-11.25h.9V207h11.61v1.62H472.64v31.5c0,4.32,2,6.66,6.3,6.66a12.33,12.33,0,0,0,5.94-1.53l.27.36a13.67,13.67,0,0,1-11.52,5.67C468.32,251.25,463.55,248.82,463.55,240.36Z" /><path
      d="M508.46,251.25c-12.06,0-20.25-9.54-20.25-22.05,0-14.49,10.89-23.58,20.79-23.58,10.53,0,17.73,9.63,17.19,17.55H497.3v1.71c0,12.69,6.3,18.72,15.75,18.72a15.34,15.34,0,0,0,12.69-6l.54.36C523.94,245.31,517.82,251.25,508.46,251.25Zm-11-29.52,19.53-.45v-1c0-8.91-2.79-13-8.37-13C501.8,207.24,498.2,213.54,497.48,221.73Z"
      /><path
      d="M568.22,239.82c-2.34,6.84-7.92,11.43-16.83,11.43-12.24,0-20.16-8.73-20.16-22.05,0-13.68,11-23.58,22.77-23.58,6.21,0,9.81,1.35,11.88,2.34l1.17,10-.81.18c-2.43-4.32-8.64-10.89-13.59-10.89-7.65,0-12.6,7.11-12.6,18.18,0,11.79,6.21,18.18,15.66,18.18,4.32,0,9.09-1.17,12-4.14Z"
      /><path d="M576,240.36V208.59H571.1v-.54l13-11.25h.9V207h11.61v1.62H585.05v31.5c0,4.32,2,6.66,6.3,6.66a12.33,12.33,0,0,0,5.94-1.53l.27.36A13.67,13.67,0,0,1,586,251.25C580.73,251.25,576,248.82,576,240.36Z" /><path
      d="M630.23,239.82c-3.06,5.85-7.2,11.43-14.49,11.43-7.65,0-11.61-5.94-11.61-15.3V216.78c0-4.59-1.53-7.65-3.78-9.63V207h12.78v27.54c0,6.3,2.88,9.54,7.92,9.54,4.32,0,7-2.43,8.73-5.67v-21.6c0-4.5-1.44-7.65-4-9.63V207h13V234.6c0,9.54,1.17,11.25,4.05,13.32v.18L630.23,251Z"
      /><path
      d="M650.12,249.9v-.18c1.71-4.95,2.07-9.36,2.07-17.28V221.82c0-5.94-1.89-9.27-4.05-11.7v-.18l12.69-4.77v11h.36c3.6-4.23,8.46-10.62,14.31-10.53l-.18,11H675a17.69,17.69,0,0,0-8-2.7c-1.44,0-3.78,1.35-5.76,4v14.4c0,7.83.18,12.42,2,17.37v.18Z"
      /><path
      d="M699.62,251.25c-12.06,0-20.25-9.54-20.25-22.05,0-14.49,10.89-23.58,20.79-23.58,10.53,0,17.73,9.63,17.19,17.55H688.46v1.71c0,12.69,6.3,18.72,15.75,18.72a15.34,15.34,0,0,0,12.69-6l.54.36C715.1,245.31,709,251.25,699.62,251.25Zm-11-29.52,19.53-.45v-1c0-8.91-2.79-13-8.37-13C693,207.24,689.36,213.54,688.64,221.73Z"
      /></g>
  </g>
</svg>
